<svg xmlns="http://www.w3.org/2000/svg" width="160" height="160" viewBox="0 0 160 160">
  <rect width="160" height="160" rx="10" fill="#F04C24"/>
  <!-- Before panel left -->
  <rect x="14" y="36" width="46" height="88" rx="4" fill="white" opacity="0.2"/>
  <!-- Damage marks -->
  <polygon points="32,56 35,50 38,56 44,54 40,60 44,66 38,64 35,70 32,64 26,66 30,60 26,54" fill="white" opacity="0.6"/>
  <polygon points="30,88 32,84 34,88 38,86 36,90 38,94 34,92 32,96 30,92 26,94 28,90 26,86" fill="white" opacity="0.5"/>
  <!-- Arrow centered at x=80 -->
  <line x1="66" y1="80" x2="76" y2="80" stroke="white" stroke-width="2.5"/>
  <polygon points="76,75 86,80 76,85" fill="white"/>
  <!-- After panel right -->
  <rect x="100" y="36" width="46" height="88" rx="4" fill="white"/>
  <!-- Clean lines -->
  <line x1="108" y1="56" x2="138" y2="56" stroke="#F04C24" stroke-width="1.5"/>
  <line x1="108" y1="68" x2="138" y2="68" stroke="#F04C24" stroke-width="1.5"/>
  <line x1="108" y1="80" x2="138" y2="80" stroke="#F04C24" stroke-width="1.5"/>
  <line x1="108" y1="92" x2="138" y2="92" stroke="#F04C24" stroke-width="1.5"/>
  <line x1="108" y1="104" x2="138" y2="104" stroke="#F04C24" stroke-width="1.5"/>
</svg>
