<svg width="64" height="34" viewBox="0 0 64 34" fill="none" xmlns="http://www.w3.org/2000/svg">
<mask id="mask0_343_73" style="mask-type:luminance" maskUnits="userSpaceOnUse" x="13" y="0" width="50" height="23">
<path d="M13.6889 0H62.7085V22.2333H13.6889V0Z" fill="white"/>
</mask>
<g mask="url(#mask0_343_73)">
<path d="M62.6479 19.5564L60.8252 22.2254L33.4305 3.91047L15.5635 15.8563L13.7399 13.1868L33.4305 0.0224609L62.6479 19.5564Z" fill="#F04C24"/>
</g>
<path d="M60.0232 23.4004L58.2 26.0693L33.4315 9.5091L18.1878 19.6997L16.3651 17.0307L33.4315 5.62109L60.0232 23.4004Z" fill="#F04C24"/>
<path d="M57.3979 27.2438L55.5753 29.9138L33.4315 15.1082L20.813 23.5441L18.9904 20.8752L33.4315 11.2202L57.3979 27.2438Z" fill="#F04C24"/>
<path d="M6.62497 29.0364C9.0455 27.5111 9.63268 25.7471 12.4886 23.7606L15.1113 27.6011L19.8001 24.6465L12.3649 13.7583L7.67609 16.713L10.2983 20.5525L10.2978 20.553C7.2641 22.2793 5.34622 22.0934 2.92468 23.6182C0.860635 24.919 -0.332566 28.3476 0.238826 29.1856C0.810728 30.0231 4.55992 30.3376 6.62497 29.0364ZM2.31763 26.3845C2.91755 26.0069 3.72218 26.1673 4.11533 26.7436C4.50848 27.3184 4.34144 28.0928 3.74153 28.4699C3.14162 28.8476 2.33699 28.6861 1.94384 28.1113C1.55069 27.5351 1.71772 26.7622 2.31763 26.3845Z" fill="white"/>
<path d="M29.5092 21.0508H32.8316V24.2417H29.5092V21.0508Z" fill="white"/>
<path d="M34.0314 21.0508H37.3534V24.2417H34.0314V21.0508Z" fill="white"/>
<path d="M29.5092 25.3945H32.8316V28.5855H29.5092V25.3945Z" fill="white"/>
<path d="M34.0314 25.3945H37.3534V28.5855H34.0314V25.3945Z" fill="white"/>
<mask id="mask1_343_73" style="mask-type:luminance" maskUnits="userSpaceOnUse" x="0" y="19" width="64" height="15">
<path d="M0 19.979H64V33.9999H0V19.979Z" fill="white"/>
</mask>
<g mask="url(#mask1_343_73)">
<path d="M55.6374 32.4397H0.0957413V33.9914H64.0499V20.0806L55.6374 32.4397Z" fill="white"/>
</g>
</svg>
